<?xml version="1.0" standalone="no"?>
<!DOCTYPE svg PUBLIC "-//W3C//DTD SVG 20010904//EN"
 "http://www.w3.org/TR/2001/REC-SVG-20010904/DTD/svg10.dtd">
<svg version="1.0" xmlns="http://www.w3.org/2000/svg"
 width="716.000000pt" height="359.000000pt" viewBox="0 0 716.000000 359.000000"
 preserveAspectRatio="xMidYMid meet">

<g transform="translate(0.000000,359.000000) scale(0.100000,-0.100000)"
fill="#000000" stroke="none">
<path d="M204 3560 c-192 -76 -264 -318 -142 -477 35 -45 3241 -2962 3318
-3019 114 -84 296 -84 410 0 54 40 3275 2966 3307 3004 47 56 63 106 63 199 0
109 -21 159 -91 225 -71 67 -140 91 -249 86 -64 -2 -97 -9 -133 -27 -33 -16
-529 -460 -1568 -1405 -837 -759 -1527 -1381 -1534 -1381 -7 0 -697 622 -1534
1381 -1036 942 -1535 1389 -1568 1405 -68 34 -206 38 -279 9z"/>
</g>
</svg>
